PathFileType	4	(X/Y/Z)	C:/Users/opensim2020/Desktop/walking_exp_matlab/subject02_walking08_straight_02.trc	
DataRate	CameraRate	NumFrames	NumMarkers	Units	OrigDataRate	OrigDataStartFrame	OrigNumFrames	
100.00	100.00	4	41	mm	100.00	1630	259	
Frame#	Time	LFHD			RFHD			LBHD			RBHD			C7			T10			CLAV			STRN			RBAK			LSHO			LUPA			LELB			LFRM			LWRA			LWRB			LFIN			RSHO			RUPA			RELB			RFRM			RWRA			RWRB			RFIN			LASI			RASI			LPSI			RPSI			LTHI			LKNE			LTIB			LANK			LHEE			LTOE			RTHI			RKNE			RTIB			RANK			RHEE			RTOE			*39			*40			
		X1	Y1	Z1	X2	Y2	Z2	X3	Y3	Z3	X4	Y4	Z4	X5	Y5	Z5	X6	Y6	Z6	X7	Y7	Z7	X8	Y8	Z8	X9	Y9	Z9	X10	Y10	Z10	X11	Y11	Z11	X12	Y12	Z12	X13	Y13	Z13	X14	Y14	Z14	X15	Y15	Z15	X16	Y16	Z16	X17	Y17	Z17	X18	Y18	Z18	X19	Y19	Z19	X20	Y20	Z20	X21	Y21	Z21	X22	Y22	Z22	X23	Y23	Z23	X24	Y24	Z24	X25	Y25	Z25	X26	Y26	Z26	X27	Y27	Z27	X28	Y28	Z28	X29	Y29	Z29	X30	Y30	Z30	X31	Y31	Z31	X32	Y32	Z32	X33	Y33	Z33	X34	Y34	Z34	X35	Y35	Z35	X36	Y36	Z36	X37	Y37	Z37	X38	Y38	Z38	X39	Y39	Z39	X40	Y40	Z40	X41	Y41	Z41	

162	1.610	1564.84753	-346.28159	1728.43677	1421.24866	-348.56503	1717.23206	1566.51807	-215.88193	1653.08765	1423.44958	-205.76041	1641.67224	1480.86023	-159.64606	1518.59875	1468.37195	-112.78748	1238.03723	1497.08325	-296.70093	1449.04956	1480.89575	-353.80191	1280.79248	1405.30432	-109.59084	1344.39368	1664.28345	-219.00005	1481.08313	1744.87207	-209.71150	1278.84326	1759.01147	-217.02669	1138.95239	1772.67444	-241.71252	1009.03918	1744.68286	-313.30505	891.78467	1775.95764	-265.99606	888.83618	1782.21790	-293.69727	828.62762	1299.04871	-250.54794	1494.45752	1209.26990	-245.51877	1302.75818	1192.85815	-275.08679	1158.06689	1177.17700	-323.61127	1047.62512	1201.73486	-391.35828	930.84564	1164.65015	-348.96768	920.11218	1168.30872	-395.47745	862.85754	1602.24622	-369.59305	994.69556	1349.08130	-352.18250	966.28796	1535.63562	-153.16840	1025.74133	1420.40027	-141.10158	1020.11780	1657.28564	-349.77176	682.76630	1622.92908	-343.14343	479.05695	1620.41602	-303.68893	286.79797	1576.92566	-320.42828	67.79465	1524.74902	-286.00748	40.23357	1585.20776	-477.74374	32.44067	1267.14221	-238.67320	664.11029	1268.59631	-222.83110	462.78940	1270.03967	-76.04519	351.13898	1309.49829	60.38945	218.46056	1375.28723	109.23692	205.27231	1292.78601	17.38927	59.75566	1477.01550	-245.91504	1799.00269	-3360.41602	2845.25000	1034.18372 
163	1.620	1566.83008	-354.52310	1729.65723	1423.16968	-356.82516	1718.36938	1568.46863	-224.07738	1654.32471	1425.40100	-213.75290	1642.83838	1482.99854	-168.05031	1519.80090	1471.51941	-121.03731	1239.22974	1498.92883	-305.03162	1450.16687	1482.80115	-362.04489	1281.80518	1407.98840	-117.73904	1345.26135	1666.38745	-227.97832	1482.52673	1747.53296	-218.94832	1280.34363	1762.22400	-226.74391	1140.56201	1776.39404	-251.71289	1010.96759	1748.57458	-323.77863	893.71307	1779.82129	-276.49432	890.67877	1786.47510	-304.40295	830.71796	1300.99976	-258.24243	1495.19629	1211.03894	-252.50174	1303.27332	1194.95386	-280.83716	1158.57959	1178.98853	-329.05426	1047.85693	1203.37012	-396.21390	930.81482	1166.51331	-353.74362	920.28796	1170.20398	-399.74341	862.63477	1603.66272	-377.88480	994.08826	1350.08569	-359.11465	967.36359	1538.76428	-161.12006	1027.12756	1423.82947	-148.07953	1021.39728	1658.48413	-353.74005	682.58759	1623.96838	-345.64032	478.88641	1621.16345	-305.14746	286.87018	1576.78625	-320.57468	67.57969	1524.85156	-286.01730	39.65601	1585.15796	-477.72794	32.39555	1267.69775	-251.92551	665.00189	1268.86133	-239.66812	463.84781	1271.70251	-92.08574	353.86353	1312.95825	45.59128	222.68681	1379.70557	93.31018	207.81287	1290.49792	2.94988	64.92229	1478.91223	-254.22362	1800.21106	-3360.36646	2845.32397	1034.00867 
164	1.630	1568.60474	-362.75504	1730.82068	1424.94226	-365.03738	1719.51184	1570.31543	-232.32181	1655.52283	1427.27319	-221.98125	1643.86877	1485.25989	-176.35637	1520.99634	1474.67285	-129.22488	1240.37793	1500.77075	-313.37146	1451.22339	1484.64282	-370.14755	1282.69983	1411.16296	-125.62244	1346.25342	1668.47253	-237.07529	1483.89478	1750.04150	-228.46524	1281.64368	1765.44885	-236.51675	1142.13196	1779.99292	-261.89102	1012.68335	1752.27087	-334.18686	895.45184	1783.56812	-286.91785	892.44916	1790.36841	-315.31427	832.53784	1302.79358	-265.85101	1495.79907	1213.23486	-258.69614	1303.78357	1196.83752	-286.52737	1158.95142	1180.80640	-334.11212	1047.89001	1204.89648	-401.18744	930.73468	1168.33069	-358.58044	920.54962	1171.93591	-404.18326	862.48425	1605.05591	-386.01819	993.51910	1350.92188	-365.45734	968.20154	1541.70093	-168.88741	1028.42957	1427.30505	-154.96281	1022.48254	1659.56018	-357.86609	682.39490	1624.88721	-347.88461	478.80774	1621.64368	-306.18915	287.06683	1576.75122	-320.57516	67.60260	1524.84656	-285.97861	39.70047	1585.14868	-477.70044	32.32951	1268.12000	-264.98386	666.09882	1269.18250	-256.10034	465.28940	1273.91089	-107.94049	356.33899	1316.47815	30.08242	225.77953	1384.02478	76.52352	208.97575	1288.04529	-13.07942	69.57651	1480.78979	-262.43396	1801.41504	-3357.47852	2845.89380	1033.97961 
165	1.640	1570.15735	-371.02872	1731.94055	1426.51831	-373.19666	1720.55188	1572.03015	-240.65994	1656.65405	1428.98950	-230.16940	1644.87708	1487.38892	-184.68954	1522.09265	1477.76062	-137.28838	1241.54126	1502.54956	-321.62695	1452.14673	1486.37488	-378.10895	1283.39307	1413.94763	-133.60640	1347.15283	1670.52063	-246.24927	1485.23413	1752.70483	-238.00916	1283.00696	1768.55359	-246.35257	1143.63135	1783.18835	-272.22076	1014.15869	1755.86755	-344.51120	897.28064	1787.27856	-297.42056	894.26794	1794.50745	-325.82059	834.67377	1304.45227	-273.42212	1496.17627	1215.20020	-265.13953	1304.34497	1198.52393	-292.58286	1159.49060	1182.45825	-339.72293	1048.36340	1206.46582	-406.39871	931.03381	1169.97791	-363.45755	920.60712	1173.53735	-408.68921	862.37988	1606.38599	-393.91580	992.94189	1351.86011	-372.25424	969.03479	1544.38867	-176.44115	1029.60291	1430.36548	-161.84149	1023.58221	1660.54822	-362.50259	682.38153	1625.79236	-349.98181	478.73737	1622.02734	-306.62637	287.36670	1576.69043	-320.56039	67.62769	1524.97070	-285.48611	40.22281	1585.16577	-477.70886	32.26228	1268.55127	-277.88480	667.26813	1269.58765	-272.33267	467.02405	1276.38013	-123.77525	358.55875	1319.94336	13.87850	228.00766	1387.99512	59.07290	208.76622	1285.51355	-30.40558	73.70632	1482.32642	-270.60461	1802.47681	-3360.21655	2845.11914	1034.16309 
